<svg id="レイヤー_1" data-name="レイヤー 1" xmlns="http://www.w3.org/2000/svg" viewBox="0 0 359.11 120.94"><defs><style>.cls-1{isolation:isolate;}.cls-2{fill:#595757;}</style></defs><g class="cls-1"><path class="cls-2" d="M110.54,85.4q0-2.88,3.56-3.31a5.6,5.6,0,0,0-2.38-4,8.87,8.87,0,0,0-5.24-1.44,9.46,9.46,0,0,0-7.92,4q-3,4-3,10.51,0,6.77,2.82,10.62a9.11,9.11,0,0,0,7.8,3.85,8.66,8.66,0,0,0,5.46-1.8,9.06,9.06,0,0,0,3.17-5c.47-1.68.76-2.64.85-2.88A2.48,2.48,0,0,1,118,94.54a2.69,2.69,0,0,1,2,.8,2.75,2.75,0,0,1,.78,2,10.85,10.85,0,0,1-1.14,4.32,15,15,0,0,1-2.71,4.18,14.19,14.19,0,0,1-10.9,4.53,14.7,14.7,0,0,1-11.73-5.18Q89.8,100,89.8,91.59q0-8.93,4.6-14.29a15.26,15.26,0,0,1,12.22-5.36,14.35,14.35,0,0,1,9.48,3.13,9.89,9.89,0,0,1,3.78,8,6.62,6.62,0,0,1-1.46,4.4,4.7,4.7,0,0,1-3.75,1.72,4.19,4.19,0,0,1-3-1.08A3.44,3.44,0,0,1,110.54,85.4Z" transform="translate(-89.8 10.56)"/><path class="cls-2" d="M165.42,75.21v2a12.36,12.36,0,0,1,18-2.41,9.46,9.46,0,0,1,3.1,7.31A8.08,8.08,0,0,1,185,87.24a5,5,0,0,1-4.14,2,4.07,4.07,0,0,1-2.78-1,3.15,3.15,0,0,1-1.14-2.45,2.9,2.9,0,0,1,.86-2.05,2.66,2.66,0,0,1,2-.9,4.39,4.39,0,0,1,.93.21,3.65,3.65,0,0,0,.43-1.58,4.37,4.37,0,0,0-1.82-3.53,7.06,7.06,0,0,0-4.53-1.44c-3.7,0-6.18,1.68-7.41,5a28.85,28.85,0,0,0-1.14,9.36v4.75c0,3.22,0,5,.07,5.4.24,2.74,1,4.11,2.21,4.11a7.67,7.67,0,0,0,1.92-.25,6.29,6.29,0,0,1,1.36-.18,2,2,0,0,1,2.28,2.26q0,2.49-2.91,2.49h-.29c-.71,0-1.79-.09-3.23-.25a30.66,30.66,0,0,0-3.23-.26c-1.9,0-3.39,0-4.48.15l-4,.36q-2.91,0-2.91-2.52c0-1.49.91-2.23,2.74-2.23a5.77,5.77,0,0,1,1.07.07l1.08.21a5.88,5.88,0,0,0,1,.15c1.2,0,1.85-1.11,1.94-3.31V98.14l-.21-16.34c-.14-2.83-.86-4.25-2.14-4.25a7.59,7.59,0,0,0-1.57.22,8.09,8.09,0,0,1-1.57.21,2.06,2.06,0,0,1-2.35-2.3c0-1.68,1-2.52,3.07-2.52a19,19,0,0,1,2.14.18,18.69,18.69,0,0,0,2.13.18,15.3,15.3,0,0,0,1.86-.18,4.5,4.5,0,0,1,1.35-.18C164.81,73.16,165.42,73.85,165.42,75.21Z" transform="translate(-89.8 10.56)"/><path class="cls-2" d="M250.53,88a9.17,9.17,0,0,1-.35,3.35c-.24.41-.93.61-2.07.61H225.44a2,2,0,0,0-1.21.25A1.07,1.07,0,0,0,224,93a13,13,0,0,0,3.2,9,10.26,10.26,0,0,0,8,3.6,10.06,10.06,0,0,0,5.73-1.73,7.84,7.84,0,0,0,3.39-4.39l.64-2.09a2.21,2.21,0,0,1,2.35-1.72q2.64,0,2.64,2.73,0,4.68-4.7,8.32a17,17,0,0,1-10.69,3.63q-7.49,0-11.91-5.07t-4.42-13.65q0-8.77,4.71-14.25a15.38,15.38,0,0,1,12.26-5.47,14.67,14.67,0,0,1,11.05,4.53A16,16,0,0,1,250.53,88Zm-25.87-1.87c0,.67.52,1,1.57,1h17c1,0,1.5-.34,1.5-1a9,9,0,0,0-2.85-6.62,9.22,9.22,0,0,0-6.7-2.81,10.69,10.69,0,0,0-7.27,2.91A8.6,8.6,0,0,0,224.66,86.12Z" transform="translate(-89.8 10.56)"/><path class="cls-2" d="M315,110.1q-5.85,0-7.2-5.12c-2.42,3.6-6.23,5.4-11.4,5.4q-5.78,0-9.23-2.88a9.49,9.49,0,0,1-3.46-7.7A9.34,9.34,0,0,1,288.74,91a13.43,13.43,0,0,1,3.31-1.41c.93-.21,2.79-.49,5.6-.83q6-.65,7.8-1.8c1.22-.76,1.82-2.18,1.82-4.24a5.74,5.74,0,0,0-2-4.65,8.58,8.58,0,0,0-5.67-1.69,10.8,10.8,0,0,0-6,1.8c-.72.48-1.07,1-1.07,1.51,0,.19.21.43.64.72a2.84,2.84,0,0,1,1,2.45,3.08,3.08,0,0,1-1,2.38,3.73,3.73,0,0,1-2.6.93,4.14,4.14,0,0,1-3.1-1.29,4.42,4.42,0,0,1-1.25-3.17q0-4,4-6.91a15.85,15.85,0,0,1,9.59-2.88q13,0,13,12.57V99a32.27,32.27,0,0,0,.14,4.1c.29,1.67,1.09,2.51,2.42,2.51q2.5,0,2.5-4.57V97.55c0-1.52.72-2.29,2.17-2.29s2.32,1.16,2.32,3.46v4.46Q322.09,110.1,315,110.1Zm-7.91-14.33V90.66a9,9,0,0,1-3.3,2,32.32,32.32,0,0,1-6.21,1q-8.1.79-8.1,6a5.26,5.26,0,0,0,2,4.32,8.25,8.25,0,0,0,5.31,1.58,10.38,10.38,0,0,0,7.52-2.63A9.76,9.76,0,0,0,307.06,95.77Z" transform="translate(-89.8 10.56)"/><path class="cls-2" d="M363.8,75.21v2a12.35,12.35,0,0,1,18-2.41,9.47,9.47,0,0,1,3.11,7.31,8.09,8.09,0,0,1-1.57,5.15,5,5,0,0,1-4.14,2,4.07,4.07,0,0,1-2.78-1,3.15,3.15,0,0,1-1.14-2.45,2.9,2.9,0,0,1,.86-2.05,2.66,2.66,0,0,1,2-.9,4.27,4.27,0,0,1,.93.21,3.52,3.52,0,0,0,.43-1.58,4.37,4.37,0,0,0-1.82-3.53,7.06,7.06,0,0,0-4.53-1.44q-5.55,0-7.41,5a28.85,28.85,0,0,0-1.14,9.36v4.75c0,3.22,0,5,.07,5.4q.36,4.11,2.21,4.11a7.81,7.81,0,0,0,1.93-.25,6.13,6.13,0,0,1,1.35-.18,2,2,0,0,1,2.28,2.26q0,2.49-2.91,2.49h-.28c-.72,0-1.79-.09-3.24-.25a30.66,30.66,0,0,0-3.23-.26c-1.89,0-3.39,0-4.47.15l-4,.36c-1.95,0-2.92-.84-2.92-2.52,0-1.49.92-2.23,2.74-2.23a5.82,5.82,0,0,1,1.08.07l1.08.21a5.68,5.68,0,0,0,1,.15c1.2,0,1.85-1.11,1.95-3.31V98.14L359,81.8q-.21-4.24-2.14-4.25a7.59,7.59,0,0,0-1.57.22,8,8,0,0,1-1.56.21,2.06,2.06,0,0,1-2.36-2.3c0-1.68,1-2.52,3.07-2.52a18.83,18.83,0,0,1,2.14.18,18.65,18.65,0,0,0,2.14.18,15.19,15.19,0,0,0,1.85-.18,4.5,4.5,0,0,1,1.35-.18C363.18,73.16,363.8,73.85,363.8,75.21Z" transform="translate(-89.8 10.56)"/><path class="cls-2" d="M448.9,88a8.94,8.94,0,0,1-.35,3.35c-.24.41-.93.61-2.07.61H423.81a2,2,0,0,0-1.21.25,1.07,1.07,0,0,0-.28.83,13.06,13.06,0,0,0,3.2,9,10.26,10.26,0,0,0,8,3.6,10.11,10.11,0,0,0,5.74-1.73,7.86,7.86,0,0,0,3.38-4.39l.64-2.09a2.22,2.22,0,0,1,2.36-1.72c1.75,0,2.63.91,2.63,2.73q0,4.68-4.7,8.32a17,17,0,0,1-10.69,3.63q-7.49,0-11.91-5.07t-4.42-13.65q0-8.77,4.71-14.25a15.38,15.38,0,0,1,12.26-5.47,14.67,14.67,0,0,1,11.05,4.53A16,16,0,0,1,448.9,88ZM423,86.12c0,.67.52,1,1.57,1h17c1,0,1.5-.34,1.5-1a9,9,0,0,0-2.85-6.62,9.2,9.2,0,0,0-6.7-2.81,10.69,10.69,0,0,0-7.27,2.91A8.6,8.6,0,0,0,423,86.12Z" transform="translate(-89.8 10.56)"/></g><text x="-89.8" y="10.56"/></svg>