<?xml version="1.0" encoding="utf-8"?>
<!-- Generator: Adobe Illustrator 26.0.1, SVG Export Plug-In . SVG Version: 6.00 Build 0)  -->
<svg version="1.1" id="レイヤー_1" xmlns="http://www.w3.org/2000/svg" xmlns:xlink="http://www.w3.org/1999/xlink" x="0px"
	 y="0px" viewBox="0 0 2834.65 992.13" style="enable-background:new 0 0 2834.65 992.13;" xml:space="preserve">
<style type="text/css">
	.st0{fill:none;}
	.st1{font-family:'YuGothic-Medium';}
	.st2{font-size:72px;}
	.st3{letter-spacing:-18;}
	.st4{letter-spacing:-1;}
</style>
<rect x="142.43" y="141.53" class="st0" width="175" height="87.5"/>
<text transform="matrix(1 0 0 1 142.4338 204.8846)" class="st1 st2">一般</text>
<rect x="364.62" y="132.27" class="st0" width="2079.3" height="99.69"/>
<text transform="matrix(1 0 0 1 346.6243 195.6263)"><tspan x="0" y="0" class="st1 st2">・・・・・・・・・・・・・・・・・・・・・・・・・・・</tspan><tspan x="1944" y="0" class="st1 st2 st3">・</tspan></text>
<rect x="1988.18" y="440.85" class="st0" width="37.98" height="18.99"/>
<rect x="2443.92" y="133.91" class="st0" width="269.41" height="123.43"/>
<text transform="matrix(1 0 0 1 2443.9211 197.2636)" class="st1 st2">\4,750</text>
<rect x="137.94" y="340.23" class="st0" width="229.06" height="87.5"/>
<text transform="matrix(1 0 0 1 137.9417 403.577)" class="st1 st2">中高生</text>
<rect x="398.05" y="339.53" class="st0" width="2079.3" height="99.69"/>
<text transform="matrix(1 0 0 1 380.0533 402.8806)"><tspan x="0" y="0" class="st1 st2">・・・・・・・・・・・・・・・・・・・・・・・・・・・</tspan><tspan x="1944" y="0" class="st1 st2 st3">・</tspan></text>
<rect x="2439.43" y="332.6" class="st0" width="269.41" height="123.43"/>
<text transform="matrix(1 0 0 1 2439.4285 395.9561)" class="st1 st2">\3,500</text>
<rect x="145.06" y="568.09" class="st0" width="175" height="87.5"/>
<text transform="matrix(1 0 0 1 145.0621 631.4451)" class="st1 st2">子供</text>
<rect x="329.22" y="572.14" class="st0" width="2079.3" height="99.69"/>
<text transform="matrix(1 0 0 1 311.2177 635.4964)"><tspan x="0" y="0" class="st1 st2 st4">・・・・・・・・・・・・・・・・・・・・・・・・・・・・・</tspan><tspan x="2043.3" y="0" class="st1 st2 st3">・</tspan></text>
<rect x="2446.55" y="560.47" class="st0" width="269.41" height="123.43"/>
<text transform="matrix(1 0 0 1 2446.5493 623.8242)" class="st1 st2">\2,500</text>
<rect x="135.57" y="757.98" class="st0" width="309.76" height="87.5"/>
<text transform="matrix(1 0 0 1 135.5676 821.3347)" class="st1 st2">ポイント</text>
<rect x="437.93" y="757.78" class="st0" width="2079.3" height="99.69"/>
<text transform="matrix(1 0 0 1 419.931 821.1286)"><tspan x="0" y="0" class="st1 st2">・・・・・・・・・・・・・・・・・・・・・・・・・・</tspan><tspan x="1872" y="0" class="st1 st2 st3">・</tspan></text>
<rect x="2437.05" y="750.36" class="st0" width="269.41" height="123.43"/>
<text transform="matrix(1 0 0 1 2437.0549 813.7143)" class="st1 st2">\2,500</text>
</svg>
